                =======================================================
                =              Little Terrorist (2004)                =
                =======================================================

  |##############################################################################|
  |                                                                              |
  |GENERAL INFORMATION                                                           |
  |===================                                                           |
  |Format                           : AVI                                        |
  |Format/Info                      : Audio Video Interleave                     |
  |File size                        : 131 MiB                                    |
  |Duration                         : 15mn 4s                                    |
  |Overall bit rate                 : 1 211 Kbps                                 |
  |                                                                              |
  |Language                         : Hindi               Source: DVD            |
  |SUBTITLE                         : No                                         |
  |GENRE                            : Drama | Short                              |
  |IMDB LINK                        : http://www.imdb.com/title/tt0425200/       |
  |IMDB RATING                      : 7.1/10                                     |
 
  |##############################################################################|

  |##############################################################################|
  |                                                                              |
  |Video                                                                         |
  |Format                           : MPEG-4 Visual                              |
  |Format settings, Matrix          : Custom                                     |
  |Codec ID                         : XVID                                       |
  |Codec ID/Hint                    : XviD                                       |
  |Duration                         : 15mn 4s                                    |
  |Width                            : 624 pixels                                 |
  |Height                           : 336 pixels                                 |
  |Display aspect ratio             : 1.857                                      |
  |Frame rate                       : 25.000 fps                                 |
  |Resolution                       : 24 bits                                    |
  |Colorimetry                      : 4:2:0                                      |
  |Scan type                        : Progressive                                |
  |Bits/(Pixel*Frame)               : 0.205                                      |
  |Stream size                      : 116 MiB (89%)                              |
  |Writing library                  : XviD 1.2.1 (UTC 2008-12-04)      rter.     |
  |##############################################################################|
  |Audio                                                                         |
  |Format                           : MPEG Audio                                 |
  |Format version                   : Version 1                                  |
  |Format profile                   : Layer 3                                    |
  |Codec ID                         : 55                                         |
  |Codec ID/Hint                    : MP3                                        |
  |Duration                         : 15mn 4s                                    |
  |Bit rate mode                    : Constant                                   |
  |Bit rate                         : 128 Kbps                                   |
  |Channel(s)                       : 2 channels                                 |
  |Sampling rate                    : 48.0 KHz                                   |
  |Resolution                       : 16 bits                                    |
  |Stream size                      : 13.8 MiB (11%)                             |
  |Alignment                        : Aligned on interleaves                     |
  |Interleave, duration             : 703 ms (17.59 video frames)                |
  |Writing library                  : LAME3.98r                                  |
  |Encoding settings                : -m j -V 4 -q 2 -lowpass 17 -b 1280msms0ms  |
  |                                                                              |
  |##############################################################################|

  Screenshots-
  
  http://img268.imageshack.us/img268/6599/thumbs20090813214319.jpg